<svg width="30" height="30" viewBox="0 0 30 30" fill="none" xmlns="http://www.w3.org/2000/svg">
<path d="M11.0137 23.5996C11.8003 22.4196 13.9243 19.8237 16.1269 18.8797C18.3295 17.9357 22.289 17.6997 23.9934 17.6997" stroke="#747474" stroke-width="1.5733" stroke-linecap="round"/>
<path d="M27.5332 18.486V7.86624C27.5332 7.43179 27.181 7.07959 26.7465 7.07959H8.26028C7.82583 7.07959 7.47363 7.43178 7.47363 7.86624V26.3525C7.47363 26.787 7.82583 27.1391 8.26028 27.1391H18.88" stroke="#747474" stroke-width="1.5733" stroke-linecap="round"/>
<path d="M20.8467 7.07981V1.57327C20.8467 1.13882 20.4945 0.786621 20.06 0.786621H1.57376C1.1393 0.786621 0.787109 1.13882 0.787109 1.57327V20.0595C0.787109 20.494 1.1393 20.8462 1.57376 20.8462H7.0803" stroke="#747474" stroke-width="1.5733" stroke-linecap="round"/>
<circle cx="12.9803" cy="12.9793" r="1.96662" fill="#747474"/>
<path d="M25.1738 22.0264V28.3196" stroke="#747474" stroke-width="1.5733" stroke-linecap="round"/>
<path d="M22.0264 25.1724L28.3196 25.1724" stroke="#747474" stroke-width="1.5733" stroke-linecap="round"/>
</svg>
